<?xml version="1.0" standalone="no"?>
<!DOCTYPE svg PUBLIC "-//W3C//DTD SVG 20010904//EN"
 "http://www.w3.org/TR/2001/REC-SVG-20010904/DTD/svg10.dtd">
<svg version="1.0" xmlns="http://www.w3.org/2000/svg"
 width="500.000000pt" height="500.000000pt" viewBox="0 0 500.000000 500.000000"
 preserveAspectRatio="xMidYMid meet">

<g transform="translate(0.000000,500.000000) scale(0.100000,-0.100000)"
fill="#1565c0" stroke="none">
<path d="M2340 4990 c-485 -26 -999 -223 -1386 -532 -434 -346 -744 -824 -873
-1348 -56 -225 -62 -280 -68 -550 -5 -226 -3 -273 16 -402 172 -1185 1124
-2068 2315 -2149 740 -49 1488 251 1990 801 395 432 616 950 657 1540 12 168
6 215 -32 264 -51 64 -169 87 -238 45 -77 -47 -87 -75 -101 -282 -44 -688
-400 -1292 -982 -1671 -163 -106 -413 -214 -617 -266 -631 -161 -1311 -17
-1830 388 -108 84 -279 255 -363 363 -322 414 -484 939 -448 1451 48 676 406
1278 982 1652 182 119 449 228 680 280 105 23 167 31 430 54 77 7 105 14 133
33 96 65 99 232 7 298 -27 19 -103 42 -127 39 -5 -1 -71 -4 -145 -8z"/>
<path d="M4660 4358 c-28 -7 -271 -246 -1183 -1156 l-1148 -1147 -21 25 c-19
23 -243 267 -646 703 -96 103 -188 195 -205 204 -44 23 -125 22 -166 -2 -89
-52 -123 -149 -83 -236 11 -26 82 -111 168 -204 81 -88 302 -328 491 -532 189
-205 358 -380 375 -389 40 -20 124 -22 160 -3 35 19 2452 2421 2477 2463 64
103 10 243 -106 275 -45 13 -66 13 -113 -1z"/>
</g>
</svg>
